# xmcd
#
# Track frame offsets: 
#        150
#        29922
#        53234
#        78340
#        99078
#        128879
#        144123
#        176255
#        199522
#        220301
#        249803
#        273118
#        311010
#
# Disc length: 4438 seconds
#
# Revision: 2
# Processed by: cddbd v1.5.2PL0 Copyright (c) Steve Scherf et al.
# Submitted via: ExactAudioCopy v1.0b4
#
DISCID=a711540d
DTITLE=Eric Clapton And Guests - Crossroads Revisited [CD3]
DYEAR=2016
DGENRE=Blues
TTITLE0=Sheryl Crow with Eric Clapton, Doyle Bramhall II, and Gary Clark
TTITLE0=Jr. - Our Love Is Fading
TTITLE1=Vince Gill with Sheryl Crow, Keb’ Mo’, Albert Lee, James Burto
TTITLE1=n, and Earl Klugh - Lay Down Sally
TTITLE2=Derek Trucks and Susan Tedeschi Band with Warren Haynes, David H
TTITLE2=ildago, Cesar Rosas, and Chris Stainton - Space Captain
TTITLE3=Jeff Beck - Hammerhead
TTITLE4=Buddy Guy with Jonny Lang and Ronnie Wood - Five Long Years
TTITLE5=Doyle Brahmhall II - Hear My Train A Comin'
TTITLE6=Steve Winwood and Eric Clapton - Dear Mr. Fantasy
TTITLE7=Booker T. with Steve Cropper, Keb’ Mo’, Blake Mills, Matt “Gui
TTITLE7=tar” Murphy, and Albert Lee - Born Under A Bad Sign
TTITLE8=The Robert Ctay Band with B.B. King, Eric Clapton, and Jimmie Va
TTITLE8=ughan - Everyday I Have The Blues
TTITLE9=Gary Clark Jr. - Please Come Home
TTITLE10=Vince Gill with Keith Urban and Albert Lee - Tumbling Dice
TTITLE11=Eric Clapton - I Shot The Sheriff
TTITLE12=Eric Clapton - Crossroads
EXTD=YEAR: 2016
EXTT0=
EXTT1=
EXTT2=
EXTT3=
EXTT4=
EXTT5=
EXTT6=
EXTT7=
EXTT8=
EXTT9=
EXTT10=
EXTT11=
EXTT12=
PLAYORDER=
